<svg xmlns="http://www.w3.org/2000/svg" xmlns:xlink="http://www.w3.org/1999/xlink" width="140" zoomAndPan="magnify" viewBox="0 0 104.88 52.499999" height="70" preserveAspectRatio="xMidYMid meet" version="1.0"><defs><clipPath id="bd717d4114"><path d="M 51.25 31.550781 L 62.839844 31.550781 L 62.839844 37.867188 L 51.25 37.867188 Z M 51.25 31.550781 " clip-rule="nonzero"/></clipPath><clipPath id="f23c3bdb11"><path d="M 58.792969 31.777344 L 51.25 31.777344 L 62.839844 37.867188 L 61.757812 31.550781 C 60.929688 31.710938 59.941406 31.777344 58.792969 31.777344 " clip-rule="nonzero"/></clipPath><clipPath id="09b8bc3cac"><path d="M 32.234375 1.929688 L 56.070312 1.929688 L 56.070312 37.867188 L 32.234375 37.867188 Z M 32.234375 1.929688 " clip-rule="nonzero"/></clipPath><clipPath id="57584e76fd"><path d="M 45.304688 13.753906 L 32.234375 15.648438 L 41.6875 24.863281 L 39.453125 37.867188 L 51.046875 31.777344 L 43 31.777344 C 42.730469 31.777344 42.460938 31.644531 42.308594 31.414062 C 42.148438 31.183594 42.121094 30.898438 42.203125 30.640625 L 48.835938 12.441406 C 48.960938 12.105469 49.269531 11.886719 49.636719 11.886719 L 56.070312 11.886719 L 51.152344 1.929688 Z M 45.304688 13.753906 " clip-rule="nonzero"/></clipPath><clipPath id="b46da7b8ed"><path d="M 43.015625 12.738281 L 68.894531 12.738281 L 68.894531 30.941406 L 43.015625 30.941406 Z M 43.015625 12.738281 " clip-rule="nonzero"/></clipPath><clipPath id="fce55bd210"><path d="M 52.183594 23.972656 L 60.089844 23.972656 C 60.089844 24.132812 60.089844 24.296875 60.078125 24.457031 C 60.0625 24.621094 60.039062 24.730469 59.996094 24.796875 L 59.929688 24.972656 C 59.902344 25 59.808594 25.175781 59.617188 25.527344 C 59.550781 25.59375 59.441406 25.675781 59.304688 25.742188 C 59.171875 25.824219 59.035156 25.90625 58.898438 25.988281 C 58.765625 26.070312 58.574219 26.164062 58.34375 26.285156 L 51.300781 26.285156 Z M 54.527344 17.40625 L 61.566406 17.40625 C 61.609375 17.40625 61.714844 17.503906 61.890625 17.707031 C 62.070312 17.894531 62.191406 18.058594 62.257812 18.164062 C 62.285156 18.261719 62.296875 18.316406 62.324219 18.34375 L 62.257812 18.519531 C 62.230469 18.585938 62.175781 18.679688 62.109375 18.816406 C 62.027344 18.9375 61.945312 19.074219 61.851562 19.207031 C 61.757812 19.34375 61.675781 19.464844 61.59375 19.574219 C 61.511719 19.679688 61.460938 19.722656 61.445312 19.722656 L 55.949219 19.722656 L 52.644531 22.644531 Z M 49.648438 12.738281 L 43.015625 30.941406 L 58.792969 30.941406 C 60.011719 30.941406 61.027344 30.859375 61.839844 30.683594 C 62.652344 30.507812 63.339844 30.25 63.921875 29.898438 C 64.492188 29.546875 64.964844 29.085938 65.34375 28.503906 C 65.726562 27.9375 66.089844 27.246094 66.429688 26.449219 L 66.5625 26.070312 C 66.671875 25.769531 66.792969 25.460938 66.902344 25.136719 C 67.011719 24.808594 67.078125 24.5 67.078125 24.175781 C 67.050781 23.714844 66.945312 23.292969 66.742188 22.914062 C 66.539062 22.535156 66.308594 22.253906 66.050781 22.035156 C 66.320312 21.902344 66.632812 21.683594 66.957031 21.398438 C 67.28125 21.117188 67.59375 20.777344 67.890625 20.398438 C 68.175781 20.019531 68.417969 19.613281 68.609375 19.179688 C 68.800781 18.746094 68.90625 18.300781 68.90625 17.839844 L 68.90625 17.773438 C 68.90625 17.136719 68.851562 16.5 68.757812 15.878906 C 68.648438 15.257812 68.472656 14.730469 68.203125 14.269531 C 67.945312 13.808594 67.582031 13.441406 67.132812 13.160156 C 66.6875 12.875 66.117188 12.726562 65.425781 12.726562 L 49.648438 12.726562 Z M 49.648438 12.738281 " clip-rule="nonzero"/></clipPath><clipPath id="e77087157b"><path d="M 3.144531 42 L 16 42 L 16 51 L 3.144531 51 Z M 3.144531 42 " clip-rule="nonzero"/></clipPath></defs><g clip-path="url(#bd717d4114)"><g clip-path="url(#f23c3bdb11)"><path fill="#1b75bb" d="M 51.25 37.867188 L 51.25 31.550781 L 62.839844 31.550781 L 62.839844 37.867188 Z M 51.25 37.867188 " fill-opacity="1" fill-rule="nonzero"/></g></g><g clip-path="url(#09b8bc3cac)"><g clip-path="url(#57584e76fd)"><path fill="#1b75bb" d="M 32.234375 37.867188 L 32.234375 1.929688 L 56.070312 1.929688 L 56.070312 37.867188 Z M 32.234375 37.867188 " fill-opacity="1" fill-rule="nonzero"/></g></g><g clip-path="url(#b46da7b8ed)"><g clip-path="url(#fce55bd210)"><path fill="#1b75bb" d="M 43.015625 30.941406 L 43.015625 12.738281 L 68.894531 12.738281 L 68.894531 30.941406 Z M 43.015625 30.941406 " fill-opacity="1" fill-rule="nonzero"/></g></g><g clip-path="url(#e77087157b)"><path fill="#1b75bb" d="M 14.019531 42.050781 C 14.347656 42.050781 14.617188 42.117188 14.832031 42.253906 C 15.050781 42.386719 15.210938 42.5625 15.347656 42.78125 C 15.46875 42.996094 15.566406 43.253906 15.605469 43.550781 C 15.660156 43.847656 15.671875 44.148438 15.671875 44.457031 L 15.671875 44.484375 C 15.671875 44.703125 15.632812 44.917969 15.539062 45.121094 C 15.441406 45.324219 15.335938 45.527344 15.199219 45.703125 C 15.0625 45.878906 14.914062 46.042969 14.753906 46.175781 C 14.589844 46.3125 14.453125 46.421875 14.320312 46.472656 C 14.441406 46.570312 14.550781 46.71875 14.644531 46.894531 C 14.738281 47.070312 14.792969 47.273438 14.804688 47.488281 C 14.804688 47.636719 14.777344 47.800781 14.726562 47.949219 C 14.671875 48.097656 14.617188 48.246094 14.5625 48.394531 L 14.496094 48.570312 C 14.332031 48.949219 14.15625 49.277344 13.980469 49.558594 C 13.804688 49.832031 13.574219 50.058594 13.304688 50.222656 C 13.03125 50.398438 12.695312 50.519531 12.3125 50.601562 C 11.921875 50.683594 11.449219 50.722656 10.867188 50.722656 L 3.335938 50.722656 L 6.503906 42.035156 L 14.019531 42.035156 Z M 10.648438 48.503906 C 10.757812 48.449219 10.851562 48.410156 10.90625 48.367188 C 10.972656 48.328125 11.042969 48.289062 11.109375 48.261719 C 11.175781 48.21875 11.21875 48.191406 11.257812 48.152344 C 11.339844 47.988281 11.394531 47.894531 11.40625 47.894531 L 11.433594 47.8125 C 11.460938 47.789062 11.476562 47.734375 11.476562 47.652344 C 11.476562 47.570312 11.488281 47.503906 11.488281 47.421875 L 7.722656 47.421875 L 7.304688 48.519531 L 10.648438 48.519531 Z M 9.496094 45.378906 L 12.125 45.378906 C 12.136719 45.378906 12.164062 45.351562 12.191406 45.3125 C 12.234375 45.257812 12.273438 45.203125 12.3125 45.136719 C 12.355469 45.066406 12.394531 45.011719 12.4375 44.945312 C 12.476562 44.890625 12.503906 44.835938 12.503906 44.808594 L 12.53125 44.730469 C 12.515625 44.714844 12.503906 44.6875 12.503906 44.648438 C 12.476562 44.59375 12.410156 44.527344 12.328125 44.429688 C 12.246094 44.335938 12.191406 44.296875 12.179688 44.296875 L 8.820312 44.296875 L 7.914062 46.785156 Z M 9.496094 45.378906 " fill-opacity="1" fill-rule="nonzero"/></g><path fill="#1b75bb" d="M 14.628906 50.722656 L 17.800781 42.035156 L 20.925781 42.035156 L 18.570312 48.503906 L 23.769531 48.503906 C 23.785156 48.503906 23.71875 48.597656 23.582031 48.789062 C 23.445312 48.976562 23.269531 49.195312 23.066406 49.4375 C 22.863281 49.679688 22.648438 49.925781 22.417969 50.167969 C 22.1875 50.414062 21.996094 50.601562 21.847656 50.722656 Z M 14.628906 50.722656 " fill-opacity="1" fill-rule="nonzero"/><path fill="#1b75bb" d="M 35.199219 47.839844 C 34.875 48.410156 34.46875 48.910156 33.980469 49.328125 C 33.496094 49.75 32.953125 50.085938 32.34375 50.34375 C 31.734375 50.601562 31.109375 50.722656 30.460938 50.722656 L 28.824219 50.722656 C 28.226562 50.722656 27.65625 50.667969 27.15625 50.574219 C 26.640625 50.480469 26.195312 50.304688 25.828125 50.074219 C 25.464844 49.84375 25.164062 49.519531 24.949219 49.113281 C 24.734375 48.707031 24.625 48.207031 24.625 47.585938 C 24.625 47.449219 24.625 47.3125 24.636719 47.179688 C 24.652344 47.042969 24.664062 46.894531 24.691406 46.730469 C 24.773438 46.121094 24.976562 45.527344 25.300781 44.960938 C 25.613281 44.390625 26.003906 43.890625 26.480469 43.457031 C 26.953125 43.023438 27.46875 42.671875 28.023438 42.414062 C 28.59375 42.15625 29.160156 42.023438 29.742188 42.023438 L 31.910156 42.023438 C 33.238281 42.023438 34.238281 42.253906 34.917969 42.699219 C 35.59375 43.144531 35.945312 43.902344 35.945312 44.945312 C 35.945312 45.269531 35.917969 45.621094 35.851562 46 C 35.742188 46.675781 35.527344 47.273438 35.199219 47.839844 M 27.765625 46.636719 L 27.765625 46.730469 C 27.765625 46.933594 27.808594 47.136719 27.875 47.339844 C 27.957031 47.558594 28.050781 47.746094 28.1875 47.921875 C 28.320312 48.097656 28.46875 48.234375 28.644531 48.34375 C 28.824219 48.449219 29.011719 48.503906 29.203125 48.503906 L 30.285156 48.503906 C 30.394531 48.503906 30.554688 48.464844 30.757812 48.367188 C 30.960938 48.273438 31.164062 48.152344 31.394531 48.003906 C 31.613281 47.855469 31.816406 47.679688 32.019531 47.488281 C 32.222656 47.300781 32.355469 47.109375 32.464844 46.921875 C 32.558594 46.773438 32.628906 46.652344 32.640625 46.554688 L 32.707031 46.394531 C 32.734375 46.285156 32.734375 46.230469 32.734375 46.246094 C 32.75 46.164062 32.75 46.070312 32.761719 45.972656 C 32.761719 45.878906 32.777344 45.785156 32.777344 45.691406 C 32.777344 45.515625 32.761719 45.335938 32.722656 45.160156 C 32.695312 44.984375 32.628906 44.835938 32.519531 44.6875 C 32.425781 44.554688 32.289062 44.445312 32.113281 44.363281 C 31.9375 44.28125 31.71875 44.242188 31.449219 44.242188 L 30.121094 44.242188 C 29.945312 44.242188 29.757812 44.28125 29.554688 44.378906 C 29.351562 44.472656 29.148438 44.59375 28.957031 44.742188 C 28.753906 44.890625 28.578125 45.066406 28.402344 45.257812 C 28.226562 45.445312 28.105469 45.636719 27.996094 45.824219 C 27.941406 45.960938 27.886719 46.082031 27.847656 46.191406 C 27.808594 46.296875 27.78125 46.40625 27.765625 46.488281 C 27.765625 46.527344 27.765625 46.570312 27.765625 46.636719 " fill-opacity="1" fill-rule="nonzero"/><path fill="#1b75bb" d="M 36.675781 46.71875 C 36.675781 46.191406 36.785156 45.648438 37.015625 45.09375 C 37.246094 44.539062 37.558594 44.039062 37.949219 43.59375 C 38.34375 43.144531 38.804688 42.78125 39.304688 42.484375 C 39.820312 42.199219 40.359375 42.050781 40.941406 42.050781 L 47.714844 42.050781 C 47.402344 42.46875 47.078125 42.863281 46.753906 43.226562 C 46.425781 43.59375 46.074219 43.945312 45.695312 44.269531 L 41.429688 44.269531 C 41.28125 44.269531 41.132812 44.308594 40.984375 44.402344 C 40.820312 44.5 40.671875 44.621094 40.523438 44.769531 C 40.375 44.917969 40.238281 45.09375 40.117188 45.285156 C 39.996094 45.472656 39.898438 45.664062 39.832031 45.851562 C 39.75 46.136719 39.695312 46.367188 39.695312 46.527344 C 39.695312 46.730469 39.75 46.960938 39.859375 47.191406 C 39.96875 47.421875 40.101562 47.636719 40.277344 47.839844 C 40.457031 48.042969 40.632812 48.207031 40.835938 48.328125 C 41.039062 48.464844 41.226562 48.53125 41.417969 48.53125 L 45.332031 48.53125 C 45.074219 48.898438 44.789062 49.277344 44.476562 49.667969 C 44.164062 50.058594 43.800781 50.414062 43.378906 50.738281 L 42.066406 50.738281 C 41.390625 50.738281 40.726562 50.683594 40.089844 50.5625 C 39.4375 50.4375 38.871094 50.238281 38.355469 49.925781 C 37.839844 49.628906 37.433594 49.222656 37.125 48.707031 C 36.8125 48.191406 36.648438 47.542969 36.648438 46.757812 L 36.648438 46.71875 Z M 36.675781 46.71875 " fill-opacity="1" fill-rule="nonzero"/><path fill="#1b75bb" d="M 48.566406 42.050781 L 51.707031 42.050781 L 50.285156 45.945312 L 55.71875 42.050781 L 59.222656 42.050781 L 53.550781 46.394531 L 56.691406 50.722656 L 53.183594 50.722656 L 49.976562 46.828125 L 48.554688 50.722656 L 45.398438 50.722656 Z M 48.566406 42.050781 " fill-opacity="1" fill-rule="nonzero"/><path fill="#1b75bb" d="M 64.628906 47.976562 L 64.628906 47.882812 C 64.628906 47.800781 64.613281 47.707031 64.574219 47.609375 C 64.546875 47.515625 64.480469 47.476562 64.398438 47.476562 L 61.121094 47.476562 C 60.796875 47.476562 60.496094 47.394531 60.242188 47.230469 C 59.984375 47.070312 59.753906 46.867188 59.5625 46.625 C 59.375 46.378906 59.222656 46.109375 59.128906 45.8125 C 59.035156 45.515625 58.980469 45.230469 58.980469 44.945312 C 58.980469 44.6875 59.0625 44.390625 59.210938 44.050781 C 59.359375 43.714844 59.5625 43.402344 59.808594 43.105469 C 60.050781 42.808594 60.320312 42.550781 60.632812 42.347656 C 60.945312 42.144531 61.242188 42.050781 61.554688 42.050781 L 69.910156 42.050781 C 69.652344 42.414062 69.367188 42.792969 69.042969 43.160156 C 68.71875 43.523438 68.367188 43.902344 67.972656 44.269531 L 62.554688 44.269531 C 62.433594 44.269531 62.324219 44.351562 62.246094 44.511719 C 62.164062 44.675781 62.109375 44.808594 62.109375 44.90625 L 62.109375 44.984375 C 62.109375 45 62.136719 45.027344 62.175781 45.054688 C 62.21875 45.09375 62.257812 45.121094 62.273438 45.148438 C 62.3125 45.1875 62.378906 45.230469 62.460938 45.269531 C 62.542969 45.3125 62.582031 45.324219 62.597656 45.324219 L 65.710938 45.324219 C 66.0625 45.324219 66.359375 45.40625 66.617188 45.582031 C 66.875 45.757812 67.078125 45.960938 67.226562 46.21875 C 67.390625 46.472656 67.5 46.746094 67.582031 47.042969 C 67.660156 47.339844 67.6875 47.609375 67.6875 47.867188 L 67.6875 47.964844 C 67.6875 48.246094 67.621094 48.546875 67.484375 48.871094 C 67.351562 49.195312 67.1875 49.492188 66.972656 49.761719 C 66.753906 50.035156 66.511719 50.261719 66.238281 50.4375 C 65.953125 50.617188 65.671875 50.710938 65.371094 50.710938 L 57.015625 50.710938 C 57.070312 50.601562 57.179688 50.425781 57.355469 50.183594 C 57.519531 49.9375 57.707031 49.695312 57.898438 49.453125 C 58.085938 49.207031 58.261719 48.992188 58.425781 48.800781 C 58.589844 48.613281 58.683594 48.519531 58.722656 48.519531 L 64.304688 48.519531 C 64.464844 48.519531 64.558594 48.464844 64.585938 48.367188 C 64.613281 48.273438 64.628906 48.167969 64.628906 48.058594 Z M 64.628906 47.976562 " fill-opacity="1" fill-rule="nonzero"/><path fill="#1b75bb" d="M 72.632812 44.253906 L 69.53125 44.253906 L 69.53125 44.242188 C 69.542969 44.203125 69.625 44.078125 69.773438 43.875 C 69.921875 43.671875 70.097656 43.457031 70.300781 43.226562 C 70.503906 42.984375 70.707031 42.753906 70.925781 42.535156 C 71.140625 42.308594 71.316406 42.15625 71.480469 42.050781 L 79.699219 42.050781 C 79.617188 42.199219 79.496094 42.402344 79.320312 42.644531 C 79.144531 42.886719 78.957031 43.132812 78.753906 43.375 C 78.550781 43.621094 78.359375 43.824219 78.15625 44 C 77.96875 44.175781 77.832031 44.253906 77.738281 44.253906 L 75.800781 44.253906 L 73.445312 50.722656 L 70.300781 50.722656 Z M 72.632812 44.253906 " fill-opacity="1" fill-rule="nonzero"/><path fill="#1b75bb" d="M 84.398438 50.722656 L 84.0625 48.871094 C 84.035156 48.9375 83.964844 49.058594 83.816406 49.25 C 83.683594 49.4375 83.53125 49.628906 83.355469 49.84375 C 83.179688 50.046875 83.019531 50.238281 82.855469 50.414062 C 82.691406 50.589844 82.570312 50.695312 82.488281 50.722656 L 75.554688 50.722656 C 75.582031 50.640625 75.582031 50.601562 75.582031 50.617188 L 75.582031 50.5625 L 81.488281 43.023438 C 81.515625 42.957031 81.582031 42.875 81.691406 42.765625 C 81.785156 42.660156 81.894531 42.550781 82.015625 42.441406 C 82.125 42.332031 82.246094 42.238281 82.355469 42.15625 C 82.464844 42.078125 82.570312 42.035156 82.640625 42.035156 L 85.386719 42.035156 C 85.496094 42.035156 85.605469 42.089844 85.6875 42.210938 C 85.78125 42.332031 85.863281 42.484375 85.929688 42.660156 C 85.996094 42.835938 86.050781 43.011719 86.105469 43.214844 C 86.160156 43.402344 86.199219 43.566406 86.226562 43.699219 L 87.3125 50.722656 Z M 80.730469 48.53125 L 84.0625 48.53125 L 83.492188 44.675781 L 80.742188 48.355469 L 80.742188 48.53125 Z M 80.730469 48.53125 " fill-opacity="1" fill-rule="nonzero"/><path fill="#1b75bb" d="M 91.238281 42.050781 L 98.550781 42.050781 C 98.917969 42.050781 99.226562 42.128906 99.457031 42.292969 C 99.6875 42.457031 99.878906 42.660156 100.015625 42.914062 C 100.148438 43.171875 100.230469 43.445312 100.285156 43.742188 C 100.339844 44.039062 100.351562 44.308594 100.351562 44.566406 C 100.351562 45.121094 100.21875 45.582031 99.945312 45.945312 C 99.675781 46.3125 99.335938 46.597656 98.917969 46.8125 C 98.511719 47.03125 98.050781 47.179688 97.5625 47.273438 C 97.0625 47.367188 96.601562 47.433594 96.152344 47.460938 L 99.363281 50.75 L 95.855469 50.75 L 92.484375 47.636719 L 92.308594 47.773438 L 91.226562 50.75 L 88.082031 50.75 Z M 97.183594 44.554688 C 97.183594 44.472656 97.167969 44.390625 97.128906 44.335938 C 97.101562 44.28125 97.019531 44.242188 96.886719 44.242188 L 93.59375 44.242188 L 92.660156 46.800781 L 94.109375 45.335938 L 96.722656 45.335938 C 96.886719 45.335938 97.007812 45.269531 97.074219 45.121094 C 97.144531 44.972656 97.183594 44.851562 97.183594 44.742188 Z M 97.183594 44.554688 " fill-opacity="1" fill-rule="nonzero"/></svg>